<svg width="21" height="21" viewBox="0 0 21 21" fill="none" xmlns="http://www.w3.org/2000/svg">
<g clip-path="url(#clip0_1_1091)">
<path fill-rule="evenodd" clip-rule="evenodd" d="M3.00735 6.30764C3.0654 6.24944 3.13437 6.20326 3.21031 6.17175C3.28624 6.14024 3.36764 6.12402 3.44985 6.12402C3.53206 6.12402 3.61346 6.14024 3.68939 6.17175C3.76532 6.20326 3.83429 6.24944 3.89235 6.30764L10.9498 13.3664L18.0073 6.30764C18.0655 6.24953 18.1344 6.20343 18.2104 6.17199C18.2863 6.14054 18.3677 6.12435 18.4498 6.12435C18.532 6.12435 18.6134 6.14054 18.6893 6.17199C18.7653 6.20343 18.8342 6.24953 18.8923 6.30764C18.9505 6.36575 18.9966 6.43474 19.028 6.51066C19.0595 6.58659 19.0756 6.66796 19.0756 6.75014C19.0756 6.83232 19.0595 6.9137 19.028 6.98962C18.9966 7.06554 18.9505 7.13453 18.8923 7.19264L11.3923 14.6926C11.3343 14.7508 11.2653 14.797 11.1894 14.8285C11.1135 14.86 11.0321 14.8763 10.9498 14.8763C10.8676 14.8763 10.7862 14.86 10.7103 14.8285C10.6344 14.797 10.5654 14.7508 10.5073 14.6926L3.00735 7.19264C2.94914 7.13458 2.90297 7.06561 2.87146 6.98968C2.83995 6.91375 2.82373 6.83235 2.82373 6.75014C2.82373 6.66793 2.83995 6.58653 2.87146 6.5106C2.90297 6.43467 2.94914 6.3657 3.00735 6.30764Z" fill="#212121"/>
</g>
<defs>
<clipPath id="clip0_1_1091">
<rect width="20" height="20" fill="white" transform="translate(0.949951 0.5)"/>
</clipPath>
</defs>
</svg>
