<svg width="25" height="25" viewBox="0 0 25 25" fill="none" xmlns="http://www.w3.org/2000/svg">
<path d="M2.51172 12.4961C2.51289 17.4155 6.09013 21.6042 10.9488 22.3751V15.3861H8.41172V12.4961H10.9518V10.2962C10.8382 9.25372 11.1943 8.21478 11.9234 7.46112C12.6525 6.70746 13.6791 6.3172 14.7248 6.39618C15.4753 6.40831 16.2239 6.47515 16.9648 6.59619V9.05518H15.7008C15.2656 8.99819 14.8281 9.14191 14.5115 9.44585C14.1949 9.7498 14.0335 10.1811 14.0728 10.6181V12.4961H16.8438L16.4008 15.3871H14.0728V22.3751C19.3272 21.5447 23.0118 16.7459 22.4573 11.4552C21.9027 6.16455 17.303 2.23411 11.9906 2.51136C6.67808 2.78861 2.51257 7.17649 2.51172 12.4961Z" fill="white"/>
</svg>
