<svg width="24" height="25" viewBox="0 0 24 25" fill="none" xmlns="http://www.w3.org/2000/svg">
<g clip-path="url(#clip0_486_745)">
<path d="M24 12.1959C24 5.5685 18.6274 0.195923 12 0.195923C5.37258 0.195923 0 5.5685 0 12.1959C0 18.1854 4.3882 23.1499 10.125 24.0501V15.6647H7.07812V12.1959H10.125V9.55217C10.125 6.54467 11.9166 4.88342 14.6576 4.88342C15.9701 4.88342 17.3438 5.1178 17.3438 5.1178V8.07092H15.8306C14.34 8.07092 13.875 8.996 13.875 9.94592V12.1959H17.2031L16.6711 15.6647H13.875V24.0501C19.6118 23.1499 24 18.1854 24 12.1959Z" fill="#1877F2"/>
<path d="M16.6711 15.6647L17.2031 12.1959H13.875V9.94592C13.875 8.99694 14.34 8.07092 15.8306 8.07092H17.3438V5.1178C17.3438 5.1178 15.9705 4.88342 14.6576 4.88342C11.9166 4.88342 10.125 6.54467 10.125 9.55217V12.1959H7.07812V15.6647H10.125V24.0501C11.3674 24.2445 12.6326 24.2445 13.875 24.0501V15.6647H16.6711Z" fill="white"/>
</g>
<defs>
<clipPath id="clip0_486_745">
<rect width="24" height="24" fill="white" transform="translate(0 0.195923)"/>
</clipPath>
</defs>
</svg>
