<svg width="24" height="25" viewBox="0 0 24 25" fill="none" xmlns="http://www.w3.org/2000/svg">
<g clip-path="url(#clip0_486_526)">
<path d="M23.7663 12.4723C23.7663 11.6566 23.7001 10.8364 23.559 10.0339H12.2402V14.6549H18.722C18.453 16.1453 17.5888 17.4637 16.3233 18.3014V21.2998H20.1903C22.4611 19.2098 23.7663 16.1232 23.7663 12.4723Z" fill="#4285F4"/>
<path d="M12.2401 24.1967C15.4766 24.1967 18.2059 23.1341 20.1945 21.2998L16.3276 18.3015C15.2517 19.0334 13.8627 19.4479 12.2445 19.4479C9.11388 19.4479 6.45946 17.3358 5.50705 14.4962H1.5166V17.5872C3.55371 21.6393 7.7029 24.1967 12.2401 24.1967Z" fill="#34A853"/>
<path d="M5.50277 14.4963C5.00011 13.0059 5.00011 11.3921 5.50277 9.90173V6.81079H1.51674C-0.185266 10.2016 -0.185266 14.1964 1.51674 17.5872L5.50277 14.4963Z" fill="#FBBC04"/>
<path d="M12.2401 4.94558C13.9509 4.91913 15.6044 5.56289 16.8434 6.74459L20.2695 3.31854C18.1001 1.28143 15.2208 0.161457 12.2401 0.196732C7.7029 0.196732 3.55371 2.75414 1.5166 6.81073L5.50264 9.90167C6.45064 7.05765 9.10947 4.94558 12.2401 4.94558Z" fill="#EA4335"/>
</g>
<defs>
<clipPath id="clip0_486_526">
<rect width="24" height="24" fill="white" transform="translate(0 0.195923)"/>
</clipPath>
</defs>
</svg>
