<svg width="25" height="25" viewBox="0 0 25 25" fill="none" xmlns="http://www.w3.org/2000/svg">
<path d="M17.75 14.6959V11.6904C17.75 11.5109 17.75 11.4211 17.7227 11.3419C17.6985 11.2718 17.6591 11.208 17.6072 11.1551C17.5486 11.0952 17.4683 11.0551 17.3078 10.9748L12.75 8.69593M4.75 9.69593V16.5025C4.75 16.8745 4.75 17.0604 4.80802 17.2232C4.85931 17.3672 4.9429 17.4974 5.05238 17.604C5.17622 17.7246 5.34527 17.8021 5.68335 17.957L12.0834 20.8904C12.3286 21.0028 12.4512 21.059 12.5789 21.0812C12.6921 21.1008 12.8079 21.1008 12.9211 21.0812C13.0488 21.059 13.1714 21.0028 13.4166 20.8904L19.8166 17.957C20.1547 17.8021 20.3238 17.7246 20.4476 17.604C20.5571 17.4974 20.6407 17.3672 20.692 17.2232C20.75 17.0604 20.75 16.8745 20.75 16.5025V9.69593M2.75 8.69593L12.3922 3.87481C12.5234 3.80922 12.589 3.77643 12.6578 3.76352C12.7187 3.75209 12.7813 3.75209 12.8422 3.76352C12.911 3.77643 12.9766 3.80922 13.1078 3.87481L22.75 8.69593L13.1078 13.517C12.9766 13.5826 12.911 13.6154 12.8422 13.6283C12.7813 13.6398 12.7187 13.6398 12.6578 13.6283C12.589 13.6154 12.5234 13.5826 12.3922 13.517L2.75 8.69593Z" stroke="black" stroke-width="2" stroke-linecap="round" stroke-linejoin="round"/>
</svg>
