<svg width="25" height="26" viewBox="0 0 25 26" fill="none" xmlns="http://www.w3.org/2000/svg">
<path d="M19.5488 20.5373H16.5878V15.8943C16.5878 14.7883 16.5648 13.3643 15.0438 13.3643C13.4998 13.3643 13.2638 14.5643 13.2638 15.8133V20.5353H10.3018V10.9943H13.1468V12.2943H13.1858C13.4707 11.8074 13.8823 11.4069 14.3767 11.1353C14.8712 10.8638 15.43 10.7314 15.9938 10.7523C18.9938 10.7523 19.5498 12.7273 19.5498 15.2983V20.5363L19.5488 20.5373ZM6.95677 9.68825C6.61667 9.68806 6.28426 9.58704 6.00156 9.39796C5.71886 9.20889 5.49856 8.94026 5.3685 8.62601C5.23844 8.31176 5.20447 7.96601 5.27086 7.63245C5.33726 7.2989 5.50106 6.99252 5.74154 6.75203C5.98203 6.51154 6.28841 6.34775 6.62197 6.28135C6.95552 6.21495 7.30127 6.24893 7.61552 6.37899C7.92977 6.50905 8.1984 6.72935 8.38748 7.01205C8.57655 7.29475 8.67757 7.62716 8.67777 7.96725C8.67803 8.19333 8.63369 8.41724 8.5473 8.62616C8.4609 8.83508 8.33415 9.02491 8.17428 9.18477C8.01442 9.34463 7.82459 9.47139 7.61567 9.55779C7.40675 9.64418 7.18284 9.68852 6.95677 9.68825ZM8.44177 20.5373H5.47277V10.9943H8.44177V20.5373ZM21.0308 3.49425H3.98577C3.79421 3.49188 3.60407 3.52727 3.4262 3.59842C3.24833 3.66956 3.08622 3.77506 2.94915 3.90888C2.81207 4.04271 2.70272 4.20224 2.62732 4.37835C2.55193 4.55446 2.51198 4.7437 2.50977 4.93525V22.0533C2.51198 22.2448 2.55193 22.4341 2.62732 22.6102C2.70272 22.7863 2.81207 22.9458 2.94915 23.0796C3.08622 23.2134 3.24833 23.3189 3.4262 23.3901C3.60407 23.4612 3.79421 23.4966 3.98577 23.4943H21.0278C21.4153 23.4993 21.789 23.3504 22.0668 23.0803C22.3447 22.8101 22.504 22.4408 22.5098 22.0533V4.93525C22.5037 4.54784 22.3443 4.17863 22.0665 3.90852C21.7887 3.63841 21.4152 3.48944 21.0278 3.49425H21.0308Z" fill="white"/>
</svg>
