<svg width="25" height="25" viewBox="0 0 25 25" fill="none" xmlns="http://www.w3.org/2000/svg">
<path d="M12.2499 15.1959C9.07977 15.1959 6.26065 16.7266 4.46585 19.1019C4.07956 19.6131 3.88641 19.8687 3.89273 20.2142C3.89761 20.4811 4.06521 20.8178 4.27522 20.9826C4.54704 21.1959 4.92372 21.1959 5.67708 21.1959H18.8226C19.576 21.1959 19.9527 21.1959 20.2245 20.9826C20.4345 20.8178 20.6021 20.4811 20.607 20.2142C20.6133 19.8687 20.4201 19.6131 20.0339 19.1019C18.2391 16.7266 15.4199 15.1959 12.2499 15.1959Z" stroke="black" stroke-width="2" stroke-linecap="round" stroke-linejoin="round"/>
<path d="M12.2499 12.1959C14.7351 12.1959 16.7499 10.1812 16.7499 7.69592C16.7499 5.21064 14.7351 3.19592 12.2499 3.19592C9.76457 3.19592 7.74985 5.21064 7.74985 7.69592C7.74985 10.1812 9.76457 12.1959 12.2499 12.1959Z" stroke="black" stroke-width="2" stroke-linecap="round" stroke-linejoin="round"/>
</svg>
